<svg xmlns="http://www.w3.org/2000/svg" xmlns:xlink="http://www.w3.org/1999/xlink" id="Layer_1" x="0" y="0" version="1.1" viewBox="0 0 800 800" xml:space="preserve" style="enable-background:new 0 0 800 800"><style type="text/css">.st136{fill:#fff}</style><g><g><g id="b"><g><g><defs><circle id="SVGID_1_" cx="400" cy="400" r="388"/></defs><clipPath id="SVGID_00000137108822423744641490000008623475357813267111_"><use xlink:href="#SVGID_1_" style="overflow:visible"/></clipPath><polygon style="clip-path:url(#SVGID_00000137108822423744641490000008623475357813267111_);fill:#b6509e" points="788 273.9 567.6 12 788 12"/><polygon style="clip-path:url(#SVGID_00000137108822423744641490000008623475357813267111_);fill:#b6509e" points="788 282.5 560.4 12 567.6 12 788 273.9"/><polygon style="clip-path:url(#SVGID_00000137108822423744641490000008623475357813267111_);fill:#b5519e" points="788 291.1 553.1 12 560.4 12 788 282.5"/><polygon style="clip-path:url(#SVGID_00000137108822423744641490000008623475357813267111_);fill:#b4529f" points="788 299.8 545.9 12 553.1 12 788 291.1"/><polygon style="clip-path:url(#SVGID_00000137108822423744641490000008623475357813267111_);fill:#b3529f" points="788 308.4 538.6 12 545.9 12 788 299.8"/><polygon style="clip-path:url(#SVGID_00000137108822423744641490000008623475357813267111_);fill:#b2539f" points="788 317 531.4 12 538.6 12 788 308.4"/><polygon style="clip-path:url(#SVGID_00000137108822423744641490000008623475357813267111_);fill:#b1549f" points="788 325.6 524.1 12 531.4 12 788 317"/><polygon style="clip-path:url(#SVGID_00000137108822423744641490000008623475357813267111_);fill:#b055a0" points="788 334.2 516.9 12 524.1 12 788 325.6"/><polygon style="clip-path:url(#SVGID_00000137108822423744641490000008623475357813267111_);fill:#af55a0" points="788 342.8 509.6 12 516.9 12 788 334.2"/><polygon style="clip-path:url(#SVGID_00000137108822423744641490000008623475357813267111_);fill:#ae56a0" points="788 351.5 502.4 12 509.6 12 788 342.8"/><polygon style="clip-path:url(#SVGID_00000137108822423744641490000008623475357813267111_);fill:#ad57a1" points="788 360.1 495.1 12 502.4 12 788 351.5"/><polygon style="clip-path:url(#SVGID_00000137108822423744641490000008623475357813267111_);fill:#ac58a1" points="788 368.7 487.9 12 495.1 12 788 360.1"/><polygon style="clip-path:url(#SVGID_00000137108822423744641490000008623475357813267111_);fill:#ab59a1" points="788 377.3 480.6 12 487.9 12 788 368.7"/><polygon style="clip-path:url(#SVGID_00000137108822423744641490000008623475357813267111_);fill:#aa59a2" points="788 385.9 473.4 12 480.6 12 788 377.3"/><polygon style="clip-path:url(#SVGID_00000137108822423744641490000008623475357813267111_);fill:#a95aa2" points="788 394.5 466.1 12 473.4 12 788 385.9"/><polygon style="clip-path:url(#SVGID_00000137108822423744641490000008623475357813267111_);fill:#a85ba2" points="788 403.2 458.9 12 466.1 12 788 394.5"/><polygon style="clip-path:url(#SVGID_00000137108822423744641490000008623475357813267111_);fill:#a75ca2" points="788 411.8 451.6 12 458.9 12 788 403.2"/><polygon style="clip-path:url(#SVGID_00000137108822423744641490000008623475357813267111_);fill:#a65da3" points="788 420.4 444.4 12 451.6 12 788 411.8"/><polygon style="clip-path:url(#SVGID_00000137108822423744641490000008623475357813267111_);fill:#a55da3" points="788 429 437.1 12 444.4 12 788 420.4"/><polygon style="clip-path:url(#SVGID_00000137108822423744641490000008623475357813267111_);fill:#a45ea3" points="788 437.6 429.9 12 437.1 12 788 429"/><polygon style="clip-path:url(#SVGID_00000137108822423744641490000008623475357813267111_);fill:#a35fa4" points="788 446.3 422.6 12 429.9 12 788 437.6"/><polygon style="clip-path:url(#SVGID_00000137108822423744641490000008623475357813267111_);fill:#a260a4" points="788 454.9 415.4 12 422.6 12 788 446.3"/><polygon style="clip-path:url(#SVGID_00000137108822423744641490000008623475357813267111_);fill:#a160a4" points="788 463.5 408.1 12 415.4 12 788 454.9"/><polygon style="clip-path:url(#SVGID_00000137108822423744641490000008623475357813267111_);fill:#a061a5" points="788 472.1 400.9 12 408.1 12 788 463.5"/><polygon style="clip-path:url(#SVGID_00000137108822423744641490000008623475357813267111_);fill:#9f62a5" points="788 480.7 393.6 12 400.9 12 788 472.1"/><polygon style="clip-path:url(#SVGID_00000137108822423744641490000008623475357813267111_);fill:#9e63a5" points="788 489.3 386.4 12 393.6 12 788 480.7"/><polygon style="clip-path:url(#SVGID_00000137108822423744641490000008623475357813267111_);fill:#9d64a5" points="788 498 379.1 12 386.4 12 788 489.3"/><polygon style="clip-path:url(#SVGID_00000137108822423744641490000008623475357813267111_);fill:#9c64a6" points="788 506.6 371.9 12 379.1 12 788 498"/><polygon style="clip-path:url(#SVGID_00000137108822423744641490000008623475357813267111_);fill:#9b65a6" points="788 515.2 364.6 12 371.9 12 788 506.6"/><polygon style="clip-path:url(#SVGID_00000137108822423744641490000008623475357813267111_);fill:#9a66a6" points="788 523.8 357.4 12 364.6 12 788 515.2"/><polygon style="clip-path:url(#SVGID_00000137108822423744641490000008623475357813267111_);fill:#9967a7" points="788 532.4 350.1 12 357.4 12 788 523.8"/><polygon style="clip-path:url(#SVGID_00000137108822423744641490000008623475357813267111_);fill:#9868a7" points="788 541 342.9 12 350.1 12 788 532.4"/><polygon style="clip-path:url(#SVGID_00000137108822423744641490000008623475357813267111_);fill:#9768a7" points="788 549.7 335.6 12 342.9 12 788 541"/><polygon style="clip-path:url(#SVGID_00000137108822423744641490000008623475357813267111_);fill:#9669a7" points="788 558.3 328.4 12 335.6 12 788 549.7"/><polygon style="clip-path:url(#SVGID_00000137108822423744641490000008623475357813267111_);fill:#956aa8" points="788 566.9 321.1 12 328.4 12 788 558.3"/><polygon style="clip-path:url(#SVGID_00000137108822423744641490000008623475357813267111_);fill:#946ba8" points="788 575.5 313.9 12 321.1 12 788 566.9"/><polygon style="clip-path:url(#SVGID_00000137108822423744641490000008623475357813267111_);fill:#936ba8" points="788 584.1 306.6 12 313.9 12 788 575.5"/><polygon style="clip-path:url(#SVGID_00000137108822423744641490000008623475357813267111_);fill:#926ca9" points="788 592.8 299.4 12 306.6 12 788 584.1"/><polygon style="clip-path:url(#SVGID_00000137108822423744641490000008623475357813267111_);fill:#916da9" points="788 601.4 292.1 12 299.4 12 788 592.8"/><polygon style="clip-path:url(#SVGID_00000137108822423744641490000008623475357813267111_);fill:#906ea9" points="788 610 284.9 12 292.1 12 788 601.4"/><polygon style="clip-path:url(#SVGID_00000137108822423744641490000008623475357813267111_);fill:#8f6faa" points="788 618.6 277.6 12 284.9 12 788 610"/><polygon style="clip-path:url(#SVGID_00000137108822423744641490000008623475357813267111_);fill:#8e6faa" points="788 627.2 270.4 12 277.6 12 788 618.6"/><polygon style="clip-path:url(#SVGID_00000137108822423744641490000008623475357813267111_);fill:#8d70aa" points="788 635.8 263.1 12 270.4 12 788 627.2"/><polygon style="clip-path:url(#SVGID_00000137108822423744641490000008623475357813267111_);fill:#8c71aa" points="788 644.5 255.9 12 263.1 12 788 635.8"/><polygon style="clip-path:url(#SVGID_00000137108822423744641490000008623475357813267111_);fill:#8b72ab" points="788 653.1 248.6 12 255.9 12 788 644.5"/><polygon style="clip-path:url(#SVGID_00000137108822423744641490000008623475357813267111_);fill:#8a73ab" points="788 661.7 241.4 12 248.6 12 788 653.1"/><polygon style="clip-path:url(#SVGID_00000137108822423744641490000008623475357813267111_);fill:#8973ab" points="788 670.3 234.1 12 241.4 12 788 661.7"/><polygon style="clip-path:url(#SVGID_00000137108822423744641490000008623475357813267111_);fill:#8874ac" points="788 678.9 226.9 12 234.1 12 788 670.3"/><polygon style="clip-path:url(#SVGID_00000137108822423744641490000008623475357813267111_);fill:#8775ac" points="788 687.5 219.6 12 226.9 12 788 678.9"/><polygon style="clip-path:url(#SVGID_00000137108822423744641490000008623475357813267111_);fill:#8676ac" points="788 696.2 212.4 12 219.6 12 788 687.5"/><polygon style="clip-path:url(#SVGID_00000137108822423744641490000008623475357813267111_);fill:#8576ad" points="788 704.8 205.1 12 212.4 12 788 696.2"/><polygon style="clip-path:url(#SVGID_00000137108822423744641490000008623475357813267111_);fill:#8477ad" points="788 713.4 197.9 12 205.1 12 788 704.8"/><polygon style="clip-path:url(#SVGID_00000137108822423744641490000008623475357813267111_);fill:#8378ad" points="788 722 190.6 12 197.9 12 788 713.4"/><polygon style="clip-path:url(#SVGID_00000137108822423744641490000008623475357813267111_);fill:#8279ad" points="788 730.6 183.4 12 190.6 12 788 722"/><polygon style="clip-path:url(#SVGID_00000137108822423744641490000008623475357813267111_);fill:#817aae" points="788 739.3 176.1 12 183.4 12 788 730.6"/><polygon style="clip-path:url(#SVGID_00000137108822423744641490000008623475357813267111_);fill:#807aae" points="788 747.9 168.9 12 176.1 12 788 739.3"/><polygon style="clip-path:url(#SVGID_00000137108822423744641490000008623475357813267111_);fill:#7f7bae" points="788 756.5 161.6 12 168.9 12 788 747.9"/><polygon style="clip-path:url(#SVGID_00000137108822423744641490000008623475357813267111_);fill:#7e7caf" points="788 765.1 154.4 12 161.6 12 788 756.5"/><polygon style="clip-path:url(#SVGID_00000137108822423744641490000008623475357813267111_);fill:#7d7daf" points="788 773.7 147.1 12 154.4 12 788 765.1"/><polygon style="clip-path:url(#SVGID_00000137108822423744641490000008623475357813267111_);fill:#7c7eaf" points="788 782.3 139.9 12 147.1 12 788 773.7"/><polygon style="clip-path:url(#SVGID_00000137108822423744641490000008623475357813267111_);fill:#7b7eaf" points="785.5 788 132.6 12 139.9 12 788 782.3 788 788"/><polygon style="clip-path:url(#SVGID_00000137108822423744641490000008623475357813267111_);fill:#7a7fb0" points="778.3 788 125.4 12 132.6 12 785.5 788"/><polygon style="clip-path:url(#SVGID_00000137108822423744641490000008623475357813267111_);fill:#7980b0" points="771 788 118.1 12 125.4 12 778.3 788"/><polygon style="clip-path:url(#SVGID_00000137108822423744641490000008623475357813267111_);fill:#7881b0" points="763.8 788 110.9 12 118.1 12 771 788"/><polygon style="clip-path:url(#SVGID_00000137108822423744641490000008623475357813267111_);fill:#7781b1" points="756.5 788 103.6 12 110.9 12 763.8 788"/><polygon style="clip-path:url(#SVGID_00000137108822423744641490000008623475357813267111_);fill:#7682b1" points="749.3 788 96.4 12 103.6 12 756.5 788"/><polygon style="clip-path:url(#SVGID_00000137108822423744641490000008623475357813267111_);fill:#7583b1" points="742 788 89.1 12 96.4 12 749.3 788"/><polygon style="clip-path:url(#SVGID_00000137108822423744641490000008623475357813267111_);fill:#7484b2" points="734.8 788 81.9 12 89.1 12 742 788"/><polygon style="clip-path:url(#SVGID_00000137108822423744641490000008623475357813267111_);fill:#7385b2" points="727.5 788 74.6 12 81.9 12 734.8 788"/><polygon style="clip-path:url(#SVGID_00000137108822423744641490000008623475357813267111_);fill:#7185b2" points="720.3 788 67.4 12 74.6 12 727.5 788"/><polygon style="clip-path:url(#SVGID_00000137108822423744641490000008623475357813267111_);fill:#7086b2" points="713 788 60.1 12 67.4 12 720.3 788"/><polygon style="clip-path:url(#SVGID_00000137108822423744641490000008623475357813267111_);fill:#6f87b3" points="705.8 788 52.9 12 60.1 12 713 788"/><polygon style="clip-path:url(#SVGID_00000137108822423744641490000008623475357813267111_);fill:#6e88b3" points="698.5 788 45.6 12 52.9 12 705.8 788"/><polygon style="clip-path:url(#SVGID_00000137108822423744641490000008623475357813267111_);fill:#6d89b3" points="691.3 788 38.4 12 45.6 12 698.5 788"/><polygon style="clip-path:url(#SVGID_00000137108822423744641490000008623475357813267111_);fill:#6c89b4" points="684 788 31.1 12 38.4 12 691.3 788"/><polygon style="clip-path:url(#SVGID_00000137108822423744641490000008623475357813267111_);fill:#6b8ab4" points="676.8 788 23.9 12 31.1 12 684 788"/><polygon style="clip-path:url(#SVGID_00000137108822423744641490000008623475357813267111_);fill:#6a8bb4" points="669.5 788 16.6 12 23.9 12 676.8 788"/><polygon style="clip-path:url(#SVGID_00000137108822423744641490000008623475357813267111_);fill:#698cb5" points="662.3 788 12 15.1 12 12 16.6 12 669.5 788"/><polygon style="clip-path:url(#SVGID_00000137108822423744641490000008623475357813267111_);fill:#688cb5" points="655 788 12 23.7 12 15.1 662.3 788"/><polygon style="clip-path:url(#SVGID_00000137108822423744641490000008623475357813267111_);fill:#678db5" points="647.8 788 12 32.4 12 23.7 655 788"/><polygon style="clip-path:url(#SVGID_00000137108822423744641490000008623475357813267111_);fill:#668eb5" points="640.5 788 12 41 12 32.4 647.8 788"/><polygon style="clip-path:url(#SVGID_00000137108822423744641490000008623475357813267111_);fill:#658fb6" points="633.3 788 12 49.6 12 41 640.5 788"/><polygon style="clip-path:url(#SVGID_00000137108822423744641490000008623475357813267111_);fill:#6490b6" points="626 788 12 58.2 12 49.6 633.3 788"/><polygon style="clip-path:url(#SVGID_00000137108822423744641490000008623475357813267111_);fill:#6390b6" points="618.8 788 12 66.8 12 58.2 626 788"/><polygon style="clip-path:url(#SVGID_00000137108822423744641490000008623475357813267111_);fill:#6291b7" points="611.5 788 12 75.4 12 66.8 618.8 788"/><polygon style="clip-path:url(#SVGID_00000137108822423744641490000008623475357813267111_);fill:#6192b7" points="604.3 788 12 84.1 12 75.4 611.5 788"/><polygon style="clip-path:url(#SVGID_00000137108822423744641490000008623475357813267111_);fill:#6093b7" points="597 788 12 92.7 12 84.1 604.3 788"/><polygon style="clip-path:url(#SVGID_00000137108822423744641490000008623475357813267111_);fill:#5f94b7" points="589.8 788 12 101.3 12 92.7 597 788"/><polygon style="clip-path:url(#SVGID_00000137108822423744641490000008623475357813267111_);fill:#5e94b8" points="582.5 788 12 109.9 12 101.3 589.8 788"/><polygon style="clip-path:url(#SVGID_00000137108822423744641490000008623475357813267111_);fill:#5d95b8" points="575.3 788 12 118.5 12 109.9 582.5 788"/><polygon style="clip-path:url(#SVGID_00000137108822423744641490000008623475357813267111_);fill:#5c96b8" points="568 788 12 127.2 12 118.5 575.3 788"/><polygon style="clip-path:url(#SVGID_00000137108822423744641490000008623475357813267111_);fill:#5b97b9" points="560.8 788 12 135.8 12 127.2 568 788"/><polygon style="clip-path:url(#SVGID_00000137108822423744641490000008623475357813267111_);fill:#5a97b9" points="553.5 788 12 144.4 12 135.8 560.8 788"/><polygon style="clip-path:url(#SVGID_00000137108822423744641490000008623475357813267111_);fill:#5998b9" points="546.2 788 12 153 12 144.4 553.5 788"/><polygon style="clip-path:url(#SVGID_00000137108822423744641490000008623475357813267111_);fill:#5899ba" points="539 788 12 161.6 12 153 546.2 788"/><polygon style="clip-path:url(#SVGID_00000137108822423744641490000008623475357813267111_);fill:#579aba" points="531.7 788 12 170.2 12 161.6 539 788"/><polygon style="clip-path:url(#SVGID_00000137108822423744641490000008623475357813267111_);fill:#569bba" points="524.5 788 12 178.9 12 170.2 531.7 788"/><polygon style="clip-path:url(#SVGID_00000137108822423744641490000008623475357813267111_);fill:#559bba" points="517.2 788 12 187.5 12 178.9 524.5 788"/><polygon style="clip-path:url(#SVGID_00000137108822423744641490000008623475357813267111_);fill:#549cbb" points="510 788 12 196.1 12 187.5 517.2 788"/><polygon style="clip-path:url(#SVGID_00000137108822423744641490000008623475357813267111_);fill:#539dbb" points="502.7 788 12 204.7 12 196.1 510 788"/><polygon style="clip-path:url(#SVGID_00000137108822423744641490000008623475357813267111_);fill:#529ebb" points="495.5 788 12 213.3 12 204.7 502.7 788"/><polygon style="clip-path:url(#SVGID_00000137108822423744641490000008623475357813267111_);fill:#519fbc" points="488.2 788 12 221.9 12 213.3 495.5 788"/><polygon style="clip-path:url(#SVGID_00000137108822423744641490000008623475357813267111_);fill:#509fbc" points="481 788 12 230.6 12 221.9 488.2 788"/><polygon style="clip-path:url(#SVGID_00000137108822423744641490000008623475357813267111_);fill:#4fa0bc" points="473.7 788 12 239.2 12 230.6 481 788"/><polygon style="clip-path:url(#SVGID_00000137108822423744641490000008623475357813267111_);fill:#4ea1bd" points="466.5 788 12 247.8 12 239.2 473.7 788"/><polygon style="clip-path:url(#SVGID_00000137108822423744641490000008623475357813267111_);fill:#4da2bd" points="459.2 788 12 256.4 12 247.8 466.5 788"/><polygon style="clip-path:url(#SVGID_00000137108822423744641490000008623475357813267111_);fill:#4ca2bd" points="452 788 12 265 12 256.4 459.2 788"/><polygon style="clip-path:url(#SVGID_00000137108822423744641490000008623475357813267111_);fill:#4ba3bd" points="444.7 788 12 273.7 12 265 452 788"/><polygon style="clip-path:url(#SVGID_00000137108822423744641490000008623475357813267111_);fill:#4aa4be" points="437.5 788 12 282.3 12 273.7 444.7 788"/><polygon style="clip-path:url(#SVGID_00000137108822423744641490000008623475357813267111_);fill:#49a5be" points="430.2 788 12 290.9 12 282.3 437.5 788"/><polygon style="clip-path:url(#SVGID_00000137108822423744641490000008623475357813267111_);fill:#48a6be" points="423 788 12 299.5 12 290.9 430.2 788"/><polygon style="clip-path:url(#SVGID_00000137108822423744641490000008623475357813267111_);fill:#47a6bf" points="415.7 788 12 308.1 12 299.5 423 788"/><polygon style="clip-path:url(#SVGID_00000137108822423744641490000008623475357813267111_);fill:#46a7bf" points="408.5 788 12 316.7 12 308.1 415.7 788"/><polygon style="clip-path:url(#SVGID_00000137108822423744641490000008623475357813267111_);fill:#45a8bf" points="401.2 788 12 325.4 12 316.7 408.5 788"/><polygon style="clip-path:url(#SVGID_00000137108822423744641490000008623475357813267111_);fill:#44a9bf" points="394 788 12 334 12 325.4 401.2 788"/><polygon style="clip-path:url(#SVGID_00000137108822423744641490000008623475357813267111_);fill:#43aac0" points="386.7 788 12 342.6 12 334 394 788"/><polygon style="clip-path:url(#SVGID_00000137108822423744641490000008623475357813267111_);fill:#42aac0" points="379.5 788 12 351.2 12 342.6 386.7 788"/><polygon style="clip-path:url(#SVGID_00000137108822423744641490000008623475357813267111_);fill:#41abc0" points="372.2 788 12 359.8 12 351.2 379.5 788"/><polygon style="clip-path:url(#SVGID_00000137108822423744641490000008623475357813267111_);fill:#40acc1" points="365 788 12 368.4 12 359.8 372.2 788"/><polygon style="clip-path:url(#SVGID_00000137108822423744641490000008623475357813267111_);fill:#3fadc1" points="357.7 788 12 377.1 12 368.4 365 788"/><polygon style="clip-path:url(#SVGID_00000137108822423744641490000008623475357813267111_);fill:#3eadc1" points="350.5 788 12 385.7 12 377.1 357.7 788"/><polygon style="clip-path:url(#SVGID_00000137108822423744641490000008623475357813267111_);fill:#3daec2" points="343.2 788 12 394.3 12 385.7 350.5 788"/><polygon style="clip-path:url(#SVGID_00000137108822423744641490000008623475357813267111_);fill:#3cafc2" points="336 788 12 402.9 12 394.3 343.2 788"/><polygon style="clip-path:url(#SVGID_00000137108822423744641490000008623475357813267111_);fill:#3bb0c2" points="328.7 788 12 411.5 12 402.9 336 788"/><polygon style="clip-path:url(#SVGID_00000137108822423744641490000008623475357813267111_);fill:#3ab1c2" points="321.5 788 12 420.2 12 411.5 328.7 788"/><polygon style="clip-path:url(#SVGID_00000137108822423744641490000008623475357813267111_);fill:#39b1c3" points="314.2 788 12 428.8 12 420.2 321.5 788"/><polygon style="clip-path:url(#SVGID_00000137108822423744641490000008623475357813267111_);fill:#38b2c3" points="307 788 12 437.4 12 428.8 314.2 788"/><polygon style="clip-path:url(#SVGID_00000137108822423744641490000008623475357813267111_);fill:#37b3c3" points="299.7 788 12 446 12 437.4 307 788"/><polygon style="clip-path:url(#SVGID_00000137108822423744641490000008623475357813267111_);fill:#36b4c4" points="292.5 788 12 454.6 12 446 299.7 788"/><polygon style="clip-path:url(#SVGID_00000137108822423744641490000008623475357813267111_);fill:#35b5c4" points="285.2 788 12 463.2 12 454.6 292.5 788"/><polygon style="clip-path:url(#SVGID_00000137108822423744641490000008623475357813267111_);fill:#34b5c4" points="278 788 12 471.9 12 463.2 285.2 788"/><polygon style="clip-path:url(#SVGID_00000137108822423744641490000008623475357813267111_);fill:#33b6c5" points="270.7 788 12 480.5 12 471.9 278 788"/><polygon style="clip-path:url(#SVGID_00000137108822423744641490000008623475357813267111_);fill:#32b7c5" points="263.5 788 12 489.1 12 480.5 270.7 788"/><polygon style="clip-path:url(#SVGID_00000137108822423744641490000008623475357813267111_);fill:#31b8c5" points="256.2 788 12 497.7 12 489.1 263.5 788"/><polygon style="clip-path:url(#SVGID_00000137108822423744641490000008623475357813267111_);fill:#30b8c5" points="249 788 12 506.3 12 497.7 256.2 788"/><polygon style="clip-path:url(#SVGID_00000137108822423744641490000008623475357813267111_);fill:#2fb9c6" points="241.7 788 12 514.9 12 506.3 249 788"/><polygon style="clip-path:url(#SVGID_00000137108822423744641490000008623475357813267111_);fill:#2ebac6" points="234.5 788 12 523.6 12 514.9 241.7 788"/><polygon style="clip-path:url(#SVGID_00000137108822423744641490000008623475357813267111_);fill:#2ebac6" points="12 523.6 234.5 788 12 788"/></g></g><g><path d="M569.8,554.6L438.6,237.4c-7.4-16.4-18.4-24.4-32.9-24.4h-11.6c-14.5,0-25.5,8-32.9,24.4l-57.1,138.2 h-43.2c-12.9,0.1-23.4,10.5-23.5,23.5v0.3c0.1,12.9,10.6,23.4,23.5,23.5h23.2l-54.5,131.7c-1,2.9-1.6,5.9-1.6,9 c0,7.4,2.3,13.2,6.4,17.7s10,6.7,17.4,6.7c4.9-0.1,9.6-1.6,13.5-4.5c4.2-2.9,7.1-7.1,9.4-11.9l60-148.8h41.6 c12.9-0.1,23.4-10.5,23.5-23.5v-0.6c-0.1-12.9-10.6-23.4-23.5-23.5h-22.2l45.8-114.1l124.8,310.4c2.3,4.8,5.2,9,9.4,11.9 c3.9,2.9,8.7,4.4,13.5,4.5c7.4,0,13.2-2.2,17.4-6.7s6.4-10.3,6.4-17.7C571.5,560.5,571,557.4,569.8,554.6z" class="st136"/></g></g></g></g></svg>