<svg xmlns="http://www.w3.org/2000/svg" xmlns:xlink="http://www.w3.org/1999/xlink" id="Layer_1" x="0" y="0" version="1.1" viewBox="0 0 42 42" xml:space="preserve" style="enable-background:new 0 0 42 42"><style type="text/css">.st0{fill:url(#SVGID_1_)}.st3{fill:#fefefe}</style><g><linearGradient id="SVGID_1_" x1="27.621" x2="27.621" y1="48.665" y2="40.475" gradientTransform="matrix(1 0 0 1 0 -10.6341)" gradientUnits="userSpaceOnUse"><stop offset="0" style="stop-color:#4f35fe"/><stop offset="1" style="stop-color:#3542f9"/></linearGradient><path d="M41,37.1v0.3c-0.1,0.3-0.3,0.5-0.6,0.6H14.8c0,0-0.1,0-0.1-0.1c-0.5-0.2-0.6-0.7-0.4-1c0.6-1,1.1-1.9,1.7-2.9 c0.7-1.1,1.3-2.3,2-3.4c0.3-0.6,0.8-0.8,1.4-0.8c3.3,0,6.7,0,10.1,0c2.1,0,4.1,0,6.2,0c0.7,0,1.1,0.3,1.4,0.9 c0.5,0.9,1,1.8,1.5,2.7c0.7,1.1,1.3,2.3,2,3.4C40.9,37,40.9,37,41,37.1z" class="st0"/><linearGradient id="SVGID_00000053535264661423209280000014935620514710457001_" x1="16.333" x2="34.392" y1="18.909" y2="36.968" gradientTransform="matrix(1 0 0 1 0 -10.6341)" gradientUnits="userSpaceOnUse"><stop offset="0" style="stop-color:#05d6ff"/><stop offset="1" style="stop-color:#2c5efa"/></linearGradient><path style="fill:url(#SVGID_00000053535264661423209280000014935620514710457001_)" d="M34.3,26.2c-0.1,0.4-0.4,0.6-0.8,0.6 c-2.5,0-5,0-7.5,0c-0.6,0-1-0.3-1.2-0.8c-0.2-0.3-0.4-0.6-0.5-0.9c-0.6-1-1.1-1.9-1.7-2.9c-1-1.6-1.9-3.1-2.8-4.8 c-0.9-1.4-1.6-2.8-2.5-4.2c-0.3-0.4-0.5-0.9-0.8-1.2c-0.3-0.5-0.3-1,0-1.5c1.2-2,2.5-4.1,3.7-6.2c0.1-0.2,0.3-0.4,0.6-0.5h0.3 c0.3,0.1,0.4,0.3,0.6,0.6c0.8,1.3,1.5,2.7,2.4,4c1.3,2.2,2.6,4.4,3.8,6.6c0.6,1,1.1,1.9,1.7,2.9c1.1,1.9,2.3,3.8,3.4,5.7 c0.4,0.7,0.9,1.4,1.2,2.1C34.3,25.8,34.4,26,34.3,26.2z"/><linearGradient id="SVGID_00000154412817453458530570000012466901309808487851_" x1="1.024" x2="19.097" y1="48.273" y2="30.2" gradientTransform="matrix(1 0 0 1 0 -10.6341)" gradientUnits="userSpaceOnUse"><stop offset="0" style="stop-color:#53f"/><stop offset="1" style="stop-color:#1c8dfc"/></linearGradient><path style="fill:url(#SVGID_00000154412817453458530570000012466901309808487851_)" d="M18.7,23.3c-0.1,0.2-0.2,0.3-0.3,0.5 c-0.3,0.6-0.7,1.1-1,1.7c-0.6,1-1.1,1.9-1.6,2.9c-1.7,3-3.5,5.9-5.2,9c-0.2,0.4-0.5,0.7-1,0.8H9.6h-8C1.3,38,1.1,37.8,1,37.5v-0.4 c1.3-2.2,2.6-4.5,3.9-6.7c0.9-1.4,1.6-2.8,2.5-4.1c0.7-1.1,1.3-2.3,2.1-3.5c0-0.1,0.1-0.1,0.1-0.2c0.5-0.9,1-1.8,1.5-2.7 c0.9-1.5,1.7-3,2.7-4.5c0.4-0.6,1-0.6,1.3,0c1.2,2.1,2.5,4.2,3.7,6.3C19,22.4,19,22.9,18.7,23.3z"/></g><path d="M509.6,448c7.5-2,12.5-6.7,15-14c0,4.7,1.8,11.1-0.5,13.5c-2.3,2.3-8.8,0.5-13.5,0.5	C510.3,448,510,448,509.6,448z" class="st3"/><path d="M-482.6,433c1.9,8.1,7.1,12.9,15,15c-4.3,0-8.7-0.1-13,0.1c-1.7,0.1-2.1-0.3-2.1-2.1	C-482.5,441.7-482.6,437.4-482.6,433z" class="st3"/></svg>