<svg xmlns="http://www.w3.org/2000/svg" xmlns:xlink="http://www.w3.org/1999/xlink" id="Layer_1" x="0" y="0" version="1.1" viewBox="0 0 42 42" xml:space="preserve" style="enable-background:new 0 0 42 42"><style type="text/css">.st0{fill:#24339b}</style><g><path d="M41,30.1c-20.9,2.7-35.8,6-36.1-7.5c0,0,0.5-5.2,6.9-5.5c0,0,0.2-4.6,5.1-5.2c2.6-0.3,5.6,2.4,5.9,5.3 c0,0,6.5-1.2,6.7,5.1c0.1,2.2-0.4,5.9-6.6,5.8c0,0-3.6-0.5-4.1-6.1c-1,10.8,14.6,10.2,14.8,0.4c0.1-4.2-2.6-8.6-8.7-7.8 c-3.4-8.4-12.3-8-15.6-0.1c-4.7,0-8.4,3.6-8.3,8.4C1.2,38.2,22.6,33.6,41,30.1z" class="st0"/></g></svg>