<svg xmlns="http://www.w3.org/2000/svg" xmlns:svg="http://www.w3.org/2000/svg" xmlns:xlink="http://www.w3.org/1999/xlink" id="svg32" x="0" y="0" version="1.1" viewBox="0 0 42 42" xml:space="preserve" style="enable-background:new 0 0 42 42"><style type="text/css">.st0{fill:#6f7580}</style><g><g><path d="M21,1C10,1,1,10,1,21s9,20,20,20s20-9,20-20S32,1,21,1z M32.6,15h-6.4c-1.2,0-2.1,1-2.1,2.1v0.7h5.6v5.6h-5.6 v2.1c0,4.3-3.5,7.8-7.8,7.8c-4.3,0-7.8-3.5-7.8-7.8s3.5-7.8,7.8-7.8h2.1v-0.7c0-4.3,3.5-7.8,7.8-7.8h6.4V15z" class="st0"/><path d="M18.5,23.5v2.1c0,1.2-1,2.1-2.1,2.1s-2.1-1-2.1-2.1c0-1.2,1-2.1,2.1-2.1C16.4,23.5,18.5,23.5,18.5,23.5z" class="st0"/><g><rect width="5.6" height="5.6" x="18.5" y="17.9" class="st0"/></g></g></g></svg>