<svg xmlns="http://www.w3.org/2000/svg" xmlns:xlink="http://www.w3.org/1999/xlink" id="Layer_1" x="0" y="0" version="1.1" viewBox="0 0 400 400" xml:space="preserve" style="enable-background:new 0 0 400 400"><style type="text/css">.st0{fill:#9ba1ab}</style><g><path d="M65.7,282c2.4-2.4,5.7-3.8,9.2-3.8h317.4c5.8,0,8.7,7,4.6,11.1L334.2,352c-2.4,2.4-5.7,3.8-9.2,3.8H7.6 c-5.8,0-8.7-7-4.6-11.1L65.7,282z" class="st0"/><path d="M65.7,48c2.5-2.4,5.8-3.8,9.2-3.8h317.4c5.8,0,8.7,7,4.6,11.1L334.2,118c-2.4,2.4-5.7,3.8-9.2,3.8H7.6 c-5.8,0-8.7-7-4.6-11.1L65.7,48z" class="st0"/><path d="M334.2,164.2c-2.4-2.4-5.7-3.8-9.2-3.8H7.6c-5.8,0-8.7,7-4.6,11.1l62.7,62.7c2.4,2.4,5.7,3.8,9.2,3.8h317.4 c5.8,0,8.7-7,4.6-11.1L334.2,164.2z" class="st0"/></g></svg>