<svg xmlns="http://www.w3.org/2000/svg" xmlns:xlink="http://www.w3.org/1999/xlink" id="Layer_1" x="0" y="0" version="1.1" viewBox="0 0 400 400" xml:space="preserve" style="enable-background:new 0 0 400 400"><style type="text/css">.st0{fill:url(#SVGID_1_)}</style><g><linearGradient id="SVGID_1_" x1="362.031" x2="142.365" y1="-259.304" y2="161.445" gradientTransform="matrix(1 0 0 1 0 266)" gradientUnits="userSpaceOnUse"><stop offset="0" style="stop-color:#00ffa3"/><stop offset="1" style="stop-color:#dc1fff"/></linearGradient><path d="M65.7,282c2.4-2.4,5.7-3.8,9.2-3.8h317.4c5.8,0,8.7,7,4.6,11.1L334.2,352c-2.4,2.4-5.7,3.8-9.2,3.8H7.6 c-5.8,0-8.7-7-4.6-11.1L65.7,282z" class="st0"/><linearGradient id="SVGID_00000080919909124085340420000001351225998596252800_" x1="265.989" x2="46.323" y1="-309.446" y2="111.303" gradientTransform="matrix(1 0 0 1 0 266)" gradientUnits="userSpaceOnUse"><stop offset="0" style="stop-color:#00ffa3"/><stop offset="1" style="stop-color:#dc1fff"/></linearGradient><path style="fill:url(#SVGID_00000080919909124085340420000001351225998596252800_)" d="M65.7,48c2.5-2.4,5.8-3.8,9.2-3.8h317.4 c5.8,0,8.7,7,4.6,11.1L334.2,118c-2.4,2.4-5.7,3.8-9.2,3.8H7.6c-5.8,0-8.7-7-4.6-11.1L65.7,48z"/><linearGradient id="SVGID_00000069390260758927080670000002817645667066154402_" x1="313.702" x2="94.036" y1="-284.536" y2="136.213" gradientTransform="matrix(1 0 0 1 0 266)" gradientUnits="userSpaceOnUse"><stop offset="0" style="stop-color:#00ffa3"/><stop offset="1" style="stop-color:#dc1fff"/></linearGradient><path style="fill:url(#SVGID_00000069390260758927080670000002817645667066154402_)" d="M334.2,164.2c-2.4-2.4-5.7-3.8-9.2-3.8 H7.6c-5.8,0-8.7,7-4.6,11.1l62.7,62.7c2.4,2.4,5.7,3.8,9.2,3.8h317.4c5.8,0,8.7-7,4.6-11.1L334.2,164.2z"/></g></svg>